<svg xmlns="http://www.w3.org/2000/svg" viewBox="0 0 512 512" width="512" height="512">
  <rect width="512" height="512" fill="#f3dfcf"/>
  <ellipse cx="256" cy="375" rx="141" ry="18" fill="#342e29" opacity=".08"/>
  <g fill="none" stroke="#806f5c" stroke-width="9" stroke-linecap="round">
    <path d="M192 141c-25-27 26-33 0-59M253 134c-25-27 26-33 0-59M312 141c-25-27 26-33 0-59"/>
  </g>
  <path d="M349 209h22c68 0 60 96-10 96h-18" fill="none" stroke="#342e29" stroke-width="32"/>
  <path d="M349 209h22c68 0 60 96-10 96h-18" fill="none" stroke="#df775e" stroke-width="18"/>
  <path d="M140 179h215l-14 135c-8 78-178 78-187 0Z" fill="#df775e" stroke="#342e29" stroke-width="8"/>
  <ellipse cx="248" cy="179" rx="107" ry="24" fill="#fff0d8" stroke="#342e29" stroke-width="8"/>
  <ellipse cx="248" cy="182" rx="83" ry="12" fill="#78442c"/>
  <path d="M183 233v50" stroke="#fff0d8" stroke-width="12" stroke-linecap="round" opacity=".4"/>
  <g fill="#342e29"><circle cx="220" cy="271" r="7"/><circle cx="277" cy="271" r="7"/></g>
  <path d="M234 300q15 18 30 0" fill="none" stroke="#342e29" stroke-width="7" stroke-linecap="round"/>
</svg>
